<svg xmlns="http://www.w3.org/2000/svg" xmlns:xlink="http://www.w3.org/1999/xlink" width="24" height="24" viewBox="0 0 24 24"><defs><path id="ic_playback_previous-a" d="M18.462,4.113 C18.131,3.943 17.733,3.967 17.427,4.181 L9,10.079 L9,4 C9,3.45 8.55,3 8,3 L6,3 C5.45,3 5,3.45 5,4 L5,20 C5,20.55 5.45,21 6,21 L8,21 C8.55,21 9,20.55 9,20 L9,13.921 L17.427,19.82 C17.598,19.939 17.799,20 18,20 C18.158,20 18.316,19.963 18.462,19.887 C18.793,19.715 19,19.373 19,19 L19,5 C19,4.627 18.793,4.285 18.462,4.113 Z"></path></defs><g fill-rule="evenodd" fill="transparent"><rect width="24" height="24"></rect><use xlink:href="#ic_playback_previous-a" fill="white"></use></g></svg>