<svg xmlns="http://www.w3.org/2000/svg" xmlns:xlink="http://www.w3.org/1999/xlink" width="24" height="24" viewBox="0 0 24 24"><defs><path id="ic_playback_next-a" d="M18,3 L16,3 C15.45,3 15,3.45 15,4 L15,10.067 L6.57,4.182 C6.26,3.97 5.87,3.939 5.54,4.111 C5.21,4.293 5,4.636 5,5.009 L5,18.99 C5,19.363 5.21,19.707 5.54,19.878 C5.68,19.96 5.84,20 6,20 C6.2,20 6.4,19.939 6.57,19.818 L15,13.923 L15,20 C15,20.55 15.45,21 16,21 L18,21 C18.55,21 19,20.55 19,20 L19,4 C19,3.45 18.55,3 18,3 Z"></path></defs><g fill-rule="evenodd" fill="transparent"><rect width="24" height="24"></rect><use xlink:href="#ic_playback_next-a" fill="white"></use></g></svg>