<svg xmlns="http://www.w3.org/2000/svg" xmlns:xlink="http://www.w3.org/1999/xlink" width="24" height="24" viewBox="0 0 24 24"><defs><path id="ic_navigation_search" fill-rule="nonzero" d="M22.707,21.293 L17.025,15.611 C18.258,14.071 19,12.122 19,10 C19,5.038 14.963,1 10,1 C5.038,1 1,5.038 1,10 C1,14.963 5.038,19 10,19 C12.122,19 14.071,18.258 15.611,17.025 L21.293,22.707 C21.488,22.902 21.744,23 22,23 C22.256,23 22.512,22.902 22.707,22.707 C23.098,22.316 23.098,21.684 22.707,21.293 Z M10,17 C6.14,17 3,13.859 3,10 C3,6.14 6.14,3 10,3 C13.859,3 17,6.14 17,10 C17,13.859 13.859,17 10,17 Z"></path></defs><g fill-rule="evenodd" fill="transparent"><rect width="24" height="24"></rect><use xlink:href="#ic_navigation_search" fill="red"></use></g></svg>